<?xml version="1.0" encoding="UTF-8" standalone="no"?>
<!-- Created with Inkscape (http://www.inkscape.org/) -->

<svg
   xmlns:dc="http://purl.org/dc/elements/1.1/"
   xmlns:cc="http://creativecommons.org/ns#"
   xmlns:rdf="http://www.w3.org/1999/02/22-rdf-syntax-ns#"
   xmlns:svg="http://www.w3.org/2000/svg"
   xmlns="http://www.w3.org/2000/svg"
   xmlns:sodipodi="http://sodipodi.sourceforge.net/DTD/sodipodi-0.dtd"
   xmlns:inkscape="http://www.inkscape.org/namespaces/inkscape"
   width="210mm"
   height="297mm"
   viewBox="0 0 210 297"
   version="1.1"
   id="svg8"
   inkscape:version="0.92.2 (5c3e80d, 2017-08-06)"
   sodipodi:docname="Guage.svg">
  <defs
     id="defs2">
    <inkscape:path-effect
       effect="copy_rotate"
       starting_point="51,246.5"
       origin="50,246.5"
       id="path-effect4516"
       is_visible="true"
       copies_to_360="true"
       fuse_paths="false"
       starting_angle="0"
       rotation_angle="60"
       num_copies="60" />
    <inkscape:path-effect
       effect="copy_rotate"
       starting_point="51.318873,248.10286"
       origin="50.316076,248.12036"
       id="path-effect4514"
       is_visible="true"
       copies_to_360="true"
       fuse_paths="false"
       starting_angle="1"
       rotation_angle="60"
       num_copies="60" />
  </defs>
  <sodipodi:namedview
     id="base"
     pagecolor="#ffffff"
     bordercolor="#666666"
     borderopacity="1.0"
     inkscape:pageopacity="0.0"
     inkscape:pageshadow="2"
     inkscape:zoom="0.49497475"
     inkscape:cx="-432.15698"
     inkscape:cy="440.78428"
     inkscape:document-units="mm"
     inkscape:current-layer="layer1"
     showgrid="false"
     inkscape:window-width="1920"
     inkscape:window-height="1121"
     inkscape:window-x="1911"
     inkscape:window-y="-9"
     inkscape:window-maximized="1"
     inkscape:measure-start="0,0"
     inkscape:measure-end="0,0" />
  <metadata
     id="metadata5">
    <rdf:RDF>
      <cc:Work
         rdf:about="">
        <dc:format>image/svg+xml</dc:format>
        <dc:type
           rdf:resource="http://purl.org/dc/dcmitype/StillImage" />
        <dc:title></dc:title>
      </cc:Work>
    </rdf:RDF>
  </metadata>
  <g
     inkscape:label="Layer 1"
     inkscape:groupmode="layer"
     id="layer1">
    <ellipse
       style="opacity:1;fill:#ffffff;fill-opacity:0.24705882;stroke:#000000;stroke-width:1;stroke-miterlimit:4;stroke-dasharray:none;stroke-opacity:1"
       id="path815"
       cx="50.291714"
       cy="248.41464"
       rx="49.763958"
       ry="49.763954"
       inkscape:export-xdpi="300"
       inkscape:export-ydpi="300" />
    <path
       id="path821"
       style="fill:#000000;stroke:none;stroke-width:0.33333331"
       inkscape:path-effect="#path-effect4516"
       sodipodi:type="arc"
       sodipodi:cx="50.5"
       sodipodi:cy="246.5"
       sodipodi:rx="0.5"
       sodipodi:ry="0.5"
       d="m 51,246.5 c 0,0.27614 -0.223858,0.5 -0.5,0.5 -0.276142,0 -0.5,-0.22386 -0.5,-0.5 0,-0.27614 0.223858,-0.5 0.5,-0.5 0.276142,0 0.5,0.22386 0.5,0.5 z m -0.0055,-0.10453 c 0.02886,0.27463 -0.170367,0.52066 -0.444997,0.54953 -0.274629,0.0289 -0.52066,-0.17037 -0.549525,-0.445 -0.02887,-0.27463 0.170367,-0.52066 0.444997,-0.54953 0.274629,-0.0289 0.52066,0.17037 0.549525,0.445 z m -0.01637,-0.10338 c 0.05741,0.27011 -0.11501,0.53561 -0.385118,0.59303 C 50.322922,246.94253 50.057413,246.77011 50,246.5 c -0.05741,-0.27011 0.11501,-0.53562 0.385118,-0.59303 0.270108,-0.0574 0.535616,0.11501 0.59303,0.38512 z m -0.02709,-0.10111 c 0.08533,0.26263 -0.05839,0.54471 -0.32102,0.63004 C 50.36741,246.90635 50.085333,246.76263 50,246.5 c -0.08533,-0.26263 0.05839,-0.5447 0.32102,-0.63004 0.262627,-0.0853 0.544704,0.0584 0.630037,0.32102 z m -0.03751,-0.0977 c 0.112318,0.25227 -0.0011,0.54783 -0.253404,0.66014 -0.252269,0.11232 -0.547824,-0.001 -0.660141,-0.2534 -0.112317,-0.25227 0.0011,-0.54782 0.253404,-0.66014 0.252269,-0.11232 0.547824,0.001 0.660141,0.2534 z M 50.866025,246 c 0.138072,0.23915 0.05613,0.54494 -0.183012,0.68301 C 50.443866,246.82108 50.138071,246.73915 50,246.5 c -0.138071,-0.23915 -0.05613,-0.54494 0.183013,-0.68301 0.239146,-0.13807 0.544941,-0.0561 0.683012,0.18301 z m -0.05701,-0.0878 c 0.162312,0.22341 0.112788,0.53609 -0.110616,0.69841 C 50.474997,246.77293 50.162312,246.7234 50,246.5 c -0.162312,-0.2234 -0.112788,-0.53609 0.110616,-0.6984 0.223404,-0.16231 0.536089,-0.11279 0.698401,0.11061 z m -0.06587,-0.0813 c 0.184775,0.20521 0.168206,0.52136 -0.03701,0.70614 -0.205214,0.18477 -0.521363,0.1682 -0.706138,-0.037 -0.184775,-0.20521 -0.168207,-0.52136 0.03701,-0.70614 0.205214,-0.18477 0.521363,-0.1682 0.706138,0.037 z m -0.07401,-0.074 c 0.205213,0.18477 0.221782,0.50092 0.03701,0.70613 -0.184776,0.20522 -0.500924,0.22179 -0.706138,0.037 -0.205214,-0.18478 -0.221782,-0.50092 -0.03701,-0.70614 0.184775,-0.20521 0.500924,-0.22178 0.706138,-0.037 z m -0.08135,-0.0659 c 0.223404,0.16232 0.272929,0.475 0.110616,0.6984 C 50.536089,246.61279 50.223404,246.66231 50,246.5 c -0.223404,-0.16231 -0.272928,-0.475 -0.110616,-0.6984 0.162313,-0.2234 0.474997,-0.27293 0.698401,-0.11062 z M 50.5,245.63397 c 0.239146,0.13808 0.321084,0.44387 0.183013,0.68302 C 50.544942,246.55613 50.239146,246.63807 50,246.5 c -0.239146,-0.13807 -0.321084,-0.44387 -0.183013,-0.68301 0.138071,-0.23915 0.443867,-0.32109 0.683013,-0.18302 z m -0.09326,-0.0475 c 0.252268,0.11232 0.365721,0.40788 0.253404,0.66015 -0.112317,0.25226 -0.407872,0.36572 -0.660141,0.2534 -0.252269,-0.11232 -0.365722,-0.40787 -0.253404,-0.66014 0.112317,-0.25227 0.407872,-0.36572 0.660141,-0.25341 z m -0.09772,-0.0375 c 0.262627,0.0853 0.406352,0.36741 0.32102,0.63004 -0.08533,0.26263 -0.36741,0.40635 -0.630037,0.32102 -0.262627,-0.0853 -0.406352,-0.36741 -0.32102,-0.63004 0.08533,-0.26262 0.36741,-0.40635 0.630037,-0.32102 z m -0.101105,-0.0271 c 0.270108,0.0574 0.442531,0.32292 0.385118,0.59303 -0.05741,0.27011 -0.322922,0.44253 -0.59303,0.38512 -0.270108,-0.0574 -0.442531,-0.32292 -0.385118,-0.59303 0.05741,-0.27011 0.322922,-0.44253 0.59303,-0.38512 z m -0.103384,-0.0164 c 0.27463,0.0289 0.473862,0.27489 0.444997,0.54952 -0.02887,0.27463 -0.274895,0.47386 -0.549525,0.445 -0.27463,-0.0289 -0.473861,-0.2749 -0.444997,-0.54953 0.02887,-0.27462 0.274896,-0.47386 0.549525,-0.44499 z M 50,245.5 c 0.276142,0 0.5,0.22386 0.5,0.5 0,0.27614 -0.223858,0.5 -0.5,0.5 -0.276142,0 -0.5,-0.22386 -0.5,-0.5 0,-0.27614 0.223858,-0.5 0.5,-0.5 z m -0.104528,0.005 c 0.274629,-0.0289 0.52066,0.17037 0.549525,0.44499 C 50.473861,246.2251 50.27463,246.47114 50,246.5 c -0.27463,0.0289 -0.52066,-0.17037 -0.549525,-0.445 -0.02886,-0.27463 0.170367,-0.52066 0.444997,-0.54952 z m -0.103384,0.0164 c 0.270108,-0.0574 0.535617,0.11501 0.59303,0.38512 0.05741,0.27011 -0.11501,0.53562 -0.385118,0.59303 -0.270108,0.0574 -0.535616,-0.11501 -0.59303,-0.38512 -0.05741,-0.27011 0.11501,-0.53561 0.385118,-0.59303 z m -0.101105,0.0271 c 0.262627,-0.0853 0.544704,0.0584 0.630037,0.32102 0.08533,0.26263 -0.05839,0.54471 -0.32102,0.63004 -0.262627,0.0853 -0.544704,-0.0584 -0.630037,-0.32102 -0.08533,-0.26263 0.05839,-0.5447 0.32102,-0.63004 z m -0.09772,0.0375 c 0.252269,-0.11231 0.547824,0.001 0.660141,0.25341 0.112318,0.25227 -0.0011,0.54782 -0.253404,0.66014 -0.252269,0.11232 -0.547824,-0.001 -0.660141,-0.2534 -0.112317,-0.25227 0.0011,-0.54783 0.253404,-0.66015 z M 49.5,245.63397 c 0.239146,-0.13807 0.544942,-0.0561 0.683013,0.18302 0.138071,0.23914 0.05613,0.54494 -0.183013,0.68301 -0.239146,0.13807 -0.544942,0.0561 -0.683013,-0.18301 -0.138071,-0.23915 -0.05613,-0.54494 0.183013,-0.68302 z m -0.08778,0.057 c 0.223404,-0.16231 0.536088,-0.11278 0.698401,0.11062 0.162312,0.2234 0.112788,0.53609 -0.110616,0.6984 -0.223404,0.16231 -0.536089,0.11279 -0.698401,-0.11062 -0.162313,-0.2234 -0.112788,-0.53608 0.110616,-0.6984 z m -0.08135,0.0659 c 0.205214,-0.18478 0.521363,-0.16821 0.706138,0.037 0.184775,0.20522 0.168207,0.52136 -0.03701,0.70614 -0.205214,0.18478 -0.521362,0.16821 -0.706138,-0.037 -0.184775,-0.20521 -0.168206,-0.52136 0.03701,-0.70613 z m -0.07401,0.074 c 0.184775,-0.20521 0.500924,-0.22178 0.706138,-0.037 0.205214,0.18478 0.221782,0.50093 0.03701,0.70614 -0.184775,0.20521 -0.500924,0.22178 -0.706138,0.037 -0.205213,-0.18478 -0.221782,-0.50093 -0.03701,-0.70614 z m -0.06587,0.0813 c 0.162312,-0.2234 0.474997,-0.27292 0.698401,-0.11061 0.223404,0.16231 0.272928,0.475 0.110616,0.6984 -0.162312,0.2234 -0.474997,0.27293 -0.698401,0.11062 -0.223404,-0.16232 -0.272928,-0.475 -0.110616,-0.69841 z M 49.133975,246 c 0.138071,-0.23915 0.443866,-0.32108 0.683012,-0.18301 0.239147,0.13807 0.321084,0.44386 0.183013,0.68301 -0.138071,0.23915 -0.443866,0.32108 -0.683013,0.18301 C 49.077841,246.54494 48.995903,246.23915 49.133975,246 Z m -0.04752,0.0933 c 0.112317,-0.25227 0.407872,-0.36572 0.660141,-0.2534 0.252268,0.11232 0.365721,0.40787 0.253404,0.66014 -0.112317,0.25227 -0.407872,0.36572 -0.660141,0.2534 -0.252269,-0.11231 -0.365722,-0.40787 -0.253404,-0.66014 z m -0.03751,0.0977 c 0.08533,-0.26262 0.36741,-0.40635 0.630037,-0.32102 0.262627,0.0853 0.406353,0.36741 0.32102,0.63004 -0.08533,0.26263 -0.36741,0.40635 -0.630037,0.32102 -0.262627,-0.0853 -0.406352,-0.36741 -0.32102,-0.63004 z m -0.02709,0.10111 c 0.05741,-0.27011 0.322922,-0.44253 0.59303,-0.38512 0.270108,0.0574 0.442531,0.32292 0.385118,0.59303 -0.05741,0.27011 -0.322922,0.44253 -0.59303,0.38512 -0.270108,-0.0574 -0.442531,-0.32292 -0.385118,-0.59303 z m -0.01637,0.10338 c 0.02887,-0.27463 0.274896,-0.47386 0.549525,-0.445 0.27463,0.0289 0.473862,0.2749 0.444997,0.54953 -0.02887,0.27463 -0.274896,0.47386 -0.549525,0.445 -0.27463,-0.0289 -0.473862,-0.2749 -0.444997,-0.54953 z M 49,246.5 c 0,-0.27614 0.223858,-0.5 0.5,-0.5 0.276142,0 0.5,0.22386 0.5,0.5 0,0.27614 -0.223858,0.5 -0.5,0.5 -0.276142,0 -0.5,-0.22386 -0.5,-0.5 z m 0.0055,0.10453 c -0.02886,-0.27463 0.170367,-0.52066 0.444997,-0.54953 0.274629,-0.0289 0.52066,0.17037 0.549525,0.445 0.02887,0.27463 -0.170367,0.52066 -0.444997,0.54953 -0.274629,0.0289 -0.52066,-0.17037 -0.549525,-0.445 z m 0.01637,0.10338 c -0.05741,-0.27011 0.11501,-0.53561 0.385118,-0.59303 0.270108,-0.0574 0.535617,0.11501 0.59303,0.38512 0.05741,0.27011 -0.11501,0.53562 -0.385118,0.59303 -0.270108,0.0574 -0.535616,-0.11501 -0.59303,-0.38512 z m 0.02709,0.10111 c -0.08533,-0.26263 0.05839,-0.54471 0.32102,-0.63004 0.262627,-0.0853 0.544704,0.0584 0.630037,0.32102 0.08533,0.26263 -0.05839,0.5447 -0.32102,0.63004 -0.262627,0.0853 -0.544704,-0.0584 -0.630037,-0.32102 z m 0.03751,0.0977 c -0.112318,-0.25227 0.0011,-0.54783 0.253404,-0.66014 0.252269,-0.11232 0.547824,0.001 0.660141,0.2534 0.112317,0.25227 -0.0011,0.54782 -0.253404,0.66014 -0.252269,0.11232 -0.547824,-0.001 -0.660141,-0.2534 z M 49.133975,247 c -0.138072,-0.23915 -0.05613,-0.54494 0.183012,-0.68301 0.239147,-0.13807 0.544942,-0.0561 0.683013,0.18301 0.138071,0.23915 0.05613,0.54494 -0.183013,0.68301 -0.239146,0.13807 -0.544941,0.0561 -0.683012,-0.18301 z m 0.05701,0.0878 c -0.162312,-0.22341 -0.112788,-0.53609 0.110616,-0.69841 C 49.525003,246.22707 49.837688,246.2766 50,246.5 c 0.162312,0.2234 0.112788,0.53609 -0.110616,0.6984 -0.223404,0.16231 -0.536089,0.11279 -0.698401,-0.11061 z m 0.06587,0.0813 c -0.184775,-0.20521 -0.168206,-0.52136 0.03701,-0.70614 0.205214,-0.18477 0.521363,-0.1682 0.706138,0.037 0.184775,0.20521 0.168207,0.52136 -0.03701,0.70614 -0.205214,0.18477 -0.521363,0.1682 -0.706138,-0.037 z m 0.07401,0.074 c -0.205213,-0.18477 -0.221782,-0.50092 -0.03701,-0.70613 0.184776,-0.20522 0.500924,-0.22179 0.706138,-0.037 0.205214,0.18478 0.221782,0.50092 0.03701,0.70614 -0.184775,0.20521 -0.500924,0.22178 -0.706138,0.037 z m 0.08135,0.0659 c -0.223404,-0.16232 -0.272929,-0.475 -0.110616,-0.6984 C 49.463911,246.38721 49.776596,246.33769 50,246.5 c 0.223404,0.16231 0.272928,0.475 0.110616,0.6984 -0.162313,0.2234 -0.474997,0.27293 -0.698401,0.11062 z m 0.08778,0.057 c -0.239146,-0.13808 -0.321084,-0.44387 -0.183013,-0.68302 C 49.455058,246.44387 49.760854,246.36193 50,246.5 c 0.239146,0.13807 0.321084,0.44387 0.183013,0.68301 -0.138071,0.23915 -0.443867,0.32109 -0.683013,0.18302 z m 0.09326,0.0475 c -0.252268,-0.11232 -0.365721,-0.40788 -0.253404,-0.66015 0.112317,-0.25226 0.407872,-0.36572 0.660141,-0.2534 0.252269,0.11232 0.365722,0.40787 0.253404,0.66014 -0.112317,0.25227 -0.407872,0.36572 -0.660141,0.25341 z m 0.09772,0.0375 c -0.262627,-0.0853 -0.406352,-0.36741 -0.32102,-0.63004 0.08533,-0.26263 0.36741,-0.40635 0.630037,-0.32102 0.262627,0.0853 0.406352,0.36741 0.32102,0.63004 -0.08533,0.26262 -0.36741,0.40635 -0.630037,0.32102 z m 0.101105,0.0271 c -0.270108,-0.0574 -0.442531,-0.32292 -0.385118,-0.59303 0.05741,-0.27011 0.322922,-0.44253 0.59303,-0.38512 0.270108,0.0574 0.442531,0.32292 0.385118,0.59303 -0.05741,0.27011 -0.322922,0.44253 -0.59303,0.38512 z m 0.103384,0.0164 c -0.27463,-0.0289 -0.473862,-0.27489 -0.444997,-0.54952 0.02887,-0.27463 0.274895,-0.47386 0.549525,-0.445 0.27463,0.0289 0.473861,0.2749 0.444997,0.54953 -0.02887,0.27462 -0.274896,0.47386 -0.549525,0.44499 z M 50,247.5 c -0.276142,0 -0.5,-0.22386 -0.5,-0.5 0,-0.27614 0.223858,-0.5 0.5,-0.5 0.276142,0 0.5,0.22386 0.5,0.5 0,0.27614 -0.223858,0.5 -0.5,0.5 z m 0.104528,-0.005 c -0.274629,0.0289 -0.52066,-0.17037 -0.549525,-0.44499 C 49.526139,246.7749 49.72537,246.52886 50,246.5 c 0.27463,-0.0289 0.52066,0.17037 0.549525,0.445 0.02886,0.27463 -0.170367,0.52066 -0.444997,0.54952 z m 0.103384,-0.0164 c -0.270108,0.0574 -0.535617,-0.11501 -0.59303,-0.38512 -0.05741,-0.27011 0.11501,-0.53562 0.385118,-0.59303 0.270108,-0.0574 0.535616,0.11501 0.59303,0.38512 0.05741,0.27011 -0.11501,0.53561 -0.385118,0.59303 z m 0.101105,-0.0271 c -0.262627,0.0853 -0.544704,-0.0584 -0.630037,-0.32102 -0.08533,-0.26263 0.05839,-0.54471 0.32102,-0.63004 0.262627,-0.0853 0.544704,0.0584 0.630037,0.32102 0.08533,0.26263 -0.05839,0.5447 -0.32102,0.63004 z m 0.09772,-0.0375 c -0.252269,0.11231 -0.547824,-0.001 -0.660141,-0.25341 -0.112318,-0.25227 0.0011,-0.54782 0.253404,-0.66014 0.252269,-0.11232 0.547824,0.001 0.660141,0.2534 0.112317,0.25227 -0.0011,0.54783 -0.253404,0.66015 z M 50.5,247.36603 c -0.239146,0.13807 -0.544942,0.0561 -0.683013,-0.18302 C 49.678916,246.94387 49.760854,246.63807 50,246.5 c 0.239146,-0.13807 0.544942,-0.0561 0.683013,0.18301 0.138071,0.23915 0.05613,0.54494 -0.183013,0.68302 z m 0.08778,-0.057 c -0.223404,0.16231 -0.536088,0.11278 -0.698401,-0.11062 C 49.727072,246.975 49.776596,246.66231 50,246.5 c 0.223404,-0.16231 0.536089,-0.11279 0.698401,0.11062 0.162313,0.2234 0.112788,0.53608 -0.110616,0.6984 z m 0.08135,-0.0659 c -0.205214,0.18478 -0.521363,0.16821 -0.706138,-0.037 C 49.778218,247.00092 49.794786,246.68478 50,246.5 c 0.205214,-0.18478 0.521362,-0.16821 0.706138,0.037 0.184775,0.20521 0.168206,0.52136 -0.03701,0.70613 z m 0.07401,-0.074 c -0.184775,0.20521 -0.500924,0.22178 -0.706138,0.037 C 49.831793,247.02136 49.815225,246.70521 50,246.5 c 0.184775,-0.20521 0.500924,-0.22178 0.706138,-0.037 0.205213,0.18478 0.221782,0.50093 0.03701,0.70614 z m 0.06587,-0.0813 c -0.162312,0.2234 -0.474997,0.27292 -0.698401,0.11061 C 49.887212,247.03609 49.837688,246.7234 50,246.5 c 0.162312,-0.2234 0.474997,-0.27293 0.698401,-0.11062 0.223404,0.16232 0.272928,0.475 0.110616,0.69841 z M 50.866025,247 c -0.138071,0.23915 -0.443866,0.32108 -0.683012,0.18301 C 49.943866,247.04494 49.861929,246.73915 50,246.5 c 0.138071,-0.23915 0.443866,-0.32108 0.683013,-0.18301 0.239146,0.13807 0.321084,0.44386 0.183012,0.68301 z m 0.04752,-0.0933 c -0.112317,0.25227 -0.407872,0.36572 -0.660141,0.2534 C 50.001136,247.04782 49.887683,246.75227 50,246.5 c 0.112317,-0.25227 0.407872,-0.36572 0.660141,-0.2534 0.252269,0.11231 0.365722,0.40787 0.253404,0.66014 z m 0.03751,-0.0977 c -0.08533,0.26262 -0.36741,0.40635 -0.630037,0.32102 C 50.058393,247.0447 49.914667,246.76263 50,246.5 c 0.08533,-0.26263 0.36741,-0.40635 0.630037,-0.32102 0.262627,0.0853 0.406352,0.36741 0.32102,0.63004 z m 0.02709,-0.10111 c -0.05741,0.27011 -0.322922,0.44253 -0.59303,0.38512 C 50.11501,247.03562 49.942587,246.77011 50,246.5 c 0.05741,-0.27011 0.322922,-0.44253 0.59303,-0.38512 0.270108,0.0574 0.442531,0.32292 0.385118,0.59303 z m 0.01637,-0.10338 c -0.02887,0.27463 -0.274896,0.47386 -0.549525,0.445 C 50.170367,247.02066 49.971135,246.77463 50,246.5 c 0.02887,-0.27463 0.274896,-0.47386 0.549525,-0.445 0.27463,0.0289 0.473862,0.2749 0.444997,0.54953 z"
       inkscape:export-xdpi="300"
       inkscape:export-ydpi="300"
       transform="translate(1,-0.5)" />
    <path
       style="fill:none;stroke:#000000;stroke-width:1.5;stroke-linecap:butt;stroke-linejoin:miter;stroke-miterlimit:4;stroke-dasharray:none;stroke-opacity:1"
       d="m 49.506808,200.36717 0.02868,1.98116 m -5.015815,-1.63497 0.235611,1.96731 m -5.159238,-1.10172 0.43996,1.9319 m -5.246137,-0.55639 0.639489,1.87533 m -5.275557,-0.005 0.832011,1.79822 m -5.247178,0.54649 1.015419,1.70139 m -5.161309,1.09198 1.1877,1.58594 m -5.018892,1.6255 1.346969,1.4531 m -4.821487,2.14121 1.491481,1.30434 m -4.571257,2.63347 1.619651,1.1413 m -4.2709423,3.09686 1.7300763,0.96574 m -3.9238353,3.52634 1.8215462,0.77961 m -3.5337375,3.91717 1.893059,0.58494 m -3.1049233,4.26509 1.943831,0.38385 m -2.6420911,4.56628 1.9733061,0.17856 m -2.1503115,4.81744 1.9811612,-0.0287 m -1.6349726,5.01581 1.9673103,-0.23561 m -1.1017208,5.15924 1.9319051,-0.43996 m -0.5563981,5.24614 1.8753336,-0.63949 m -0.00498,5.27556 1.7982154,-0.83202 m 0.5464938,5.24718 1.7013959,-1.01542 m 1.091979,5.16131 1.585935,-1.1877 m 1.625502,5.01889 1.453098,-1.34697 m 2.141214,4.82149 1.304342,-1.49148 m 2.633466,4.57126 1.141295,-1.61965 m 3.096866,4.27094 0.965743,-1.73008 m 3.526336,3.92384 0.77961,-1.82155 m 3.917172,3.53374 0.584936,-1.89306 m 4.265089,3.10492 0.383852,-1.94383 m 4.566278,2.64209 0.178564,-1.9733 m 4.817436,2.15031 -0.02868,-1.98116 m 5.015815,1.63497 -0.235611,-1.96731 m 5.159238,1.10172 -0.43996,-1.9319 m 5.246137,0.55639 -0.639489,-1.87533 m 5.275557,0.005 -0.832011,-1.79822 m 5.247178,-0.54649 -1.015419,-1.70139 m 5.161309,-1.09198 -1.1877,-1.58594 m 5.018892,-1.6255 -1.346969,-1.4531 m 4.821487,-2.14121 -1.491481,-1.30434 m 4.571257,-2.63347 -1.619651,-1.1413 m 4.270942,-3.09686 -1.730076,-0.96574 m 3.923835,-3.52634 -1.821546,-0.77961 m 3.533738,-3.91717 -1.893059,-0.58494 m 3.104923,-4.26509 -1.943831,-0.38385 m 2.642091,-4.56628 -1.973306,-0.17856 m 2.150311,-4.81744 -1.981161,0.0287 m 1.634973,-5.01581 -1.96731,0.23561 m 1.10172,-5.15924 -1.931905,0.43996 m 0.556398,-5.24614 -1.875333,0.63949 m 0.005,-5.27556 -1.798215,0.83202 m -0.546494,-5.24718 -1.701396,1.01542 m -1.091979,-5.16131 -1.585935,1.1877 m -1.625502,-5.01889 -1.453098,1.34697 m -2.141214,-4.82149 -1.304342,1.49148 m -2.633466,-4.57126 -1.141295,1.61965 m -3.096866,-4.27094 -0.965743,1.73008 m -3.526336,-3.92384 -0.77961,1.82155 m -3.917172,-3.53374 -0.584936,1.89306 m -4.265089,-3.10492 -0.383852,1.94383 m -4.566278,-2.64209 -0.178564,1.9733"
       id="path823"
       inkscape:connector-curvature="0"
       sodipodi:nodetypes="cc"
       inkscape:transform-center-x="0.16056573"
       inkscape:transform-center-y="-16.607519"
       inkscape:path-effect="#path-effect4514"
       inkscape:original-d="m 50.340339,200.36032 -0.0059,1.98136"
       inkscape:export-xdpi="300"
       inkscape:export-ydpi="300" />
    <text
       xml:space="preserve"
       style="font-style:normal;font-weight:normal;font-size:2.82222223px;line-height:1.25;font-family:sans-serif;text-align:center;letter-spacing:0px;word-spacing:0px;text-anchor:middle;fill:#000000;fill-opacity:1;stroke:none;stroke-width:0.26458332"
       x="49.319069"
       y="280.83081"
       id="text4520"
       inkscape:export-xdpi="300"
       inkscape:export-ydpi="300"><tspan
         sodipodi:role="line"
         id="tspan4518"
         x="49.319069"
         y="280.83081"
         style="text-align:center;text-anchor:middle;stroke-width:0.26458332;font-size:4.23333333px">H.E.A.V.I</tspan><tspan
         sodipodi:role="line"
         x="49.319069"
         y="284.35858"
         style="text-align:center;text-anchor:middle;stroke-width:0.26458332;font-size:4.23333333px"
         id="tspan4522">June 2018</tspan></text>
  </g>
</svg>
